# Blender 4.3.2
# www.blender.org
mtllib hoop.mtl
o Cone
v 0.000539 5.340369 1.001254
v 0.195793 5.339786 0.983631
v 0.383856 5.339242 0.928257
v 0.557503 5.338757 0.837261
v 0.710059 5.338350 0.714138
v 0.835662 5.338037 0.563621
v 0.929485 5.337831 0.391493
v 0.987923 5.337737 0.204370
v 1.008730 5.337761 0.009443
v 0.991106 5.337902 -0.185798
v 0.935729 5.338154 -0.373849
v 0.844727 5.338507 -0.547484
v 0.721596 5.338948 -0.700031
v 0.571069 5.339459 -0.825625
v 0.398930 5.340022 -0.919443
v 0.211795 5.340614 -0.977877
v 0.016855 5.341214 -0.998682
v -0.178398 5.341797 -0.981060
v -0.366462 5.342341 -0.925686
v -0.540108 5.342826 -0.834689
v -0.692664 5.343232 -0.711567
v -0.818267 5.343545 -0.561050
v -0.912090 5.343752 -0.388922
v -0.970528 5.343845 -0.201799
v -0.991335 5.343821 -0.006872
v -0.973712 5.343680 0.188369
v -0.918334 5.343429 0.376420
v -0.827332 5.343076 0.550055
v -0.704201 5.342635 0.702602
v -0.553674 5.342123 0.828197
v -0.381536 5.341560 0.922014
v -0.194401 5.340968 0.980448
v -0.008697 -0.407599 -0.001286
vn 0.0881 -0.1713 0.9813
vn 0.2778 -0.1719 0.9451
vn 0.4568 -0.1724 0.8727
vn 0.6183 -0.1728 0.7667
vn 0.7560 -0.1732 0.6312
vn 0.8646 -0.1734 0.4715
vn 0.9400 -0.1736 0.2937
vn 0.9793 -0.1736 0.1045
vn 0.9808 -0.1735 -0.0887
vn 0.9447 -0.1733 -0.2784
vn 0.8722 -0.1730 -0.4575
vn 0.7662 -0.1726 -0.6190
vn 0.6307 -0.1722 -0.7567
vn 0.4710 -0.1716 -0.8653
vn 0.2932 -0.1711 -0.9406
vn 0.1041 -0.1705 -0.9799
vn -0.0891 -0.1699 -0.9814
vn -0.2788 -0.1693 -0.9453
vn -0.4579 -0.1688 -0.8728
vn -0.6193 -0.1684 -0.7669
vn -0.7570 -0.1680 -0.6314
vn -0.8657 -0.1678 -0.4717
vn -0.9411 -0.1676 -0.2938
vn -0.9803 -0.1676 -0.1047
vn -0.9819 -0.1677 0.0885
vn -0.9457 -0.1679 0.2783
vn -0.8733 -0.1682 0.4573
vn -0.7672 -0.1685 0.6188
vn -0.6318 -0.1690 0.7565
vn -0.4721 -0.1695 0.8651
vn 0.0030 1.0000 0.0004
vn -0.2942 -0.1701 0.9405
vn -0.1051 -0.1707 0.9797
vt 0.250000 0.490000
vt 0.250000 0.250000
vt 0.296822 0.485388
vt 0.341844 0.471731
vt 0.383337 0.449553
vt 0.419706 0.419706
vt 0.449553 0.383337
vt 0.471731 0.341844
vt 0.485388 0.296822
vt 0.490000 0.250000
vt 0.485388 0.203178
vt 0.471731 0.158156
vt 0.449553 0.116663
vt 0.419706 0.080294
vt 0.383337 0.050447
vt 0.341844 0.028269
vt 0.296822 0.014612
vt 0.250000 0.010000
vt 0.203178 0.014612
vt 0.158156 0.028269
vt 0.116663 0.050447
vt 0.080294 0.080294
vt 0.050447 0.116663
vt 0.028269 0.158156
vt 0.014612 0.203178
vt 0.010000 0.250000
vt 0.014612 0.296822
vt 0.028269 0.341844
vt 0.050447 0.383337
vt 0.080294 0.419706
vt 0.116663 0.449553
vt 0.158156 0.471731
vt 0.750000 0.490000
vt 0.796822 0.485388
vt 0.841844 0.471731
vt 0.883337 0.449553
vt 0.919706 0.419706
vt 0.949553 0.383337
vt 0.971731 0.341844
vt 0.985388 0.296822
vt 0.990000 0.250000
vt 0.985388 0.203178
vt 0.971731 0.158156
vt 0.949553 0.116663
vt 0.919706 0.080294
vt 0.883337 0.050447
vt 0.841844 0.028269
vt 0.796822 0.014612
vt 0.750000 0.010000
vt 0.703178 0.014612
vt 0.658156 0.028269
vt 0.616663 0.050447
vt 0.580294 0.080294
vt 0.550447 0.116663
vt 0.528269 0.158156
vt 0.514612 0.203178
vt 0.510000 0.250000
vt 0.514612 0.296822
vt 0.528269 0.341844
vt 0.550447 0.383337
vt 0.580294 0.419706
vt 0.616663 0.449553
vt 0.658156 0.471731
vt 0.703178 0.485388
vt 0.203178 0.485388
s 0
f 1/1/1 33/2/1 2/3/1
f 2/3/2 33/2/2 3/4/2
f 3/4/3 33/2/3 4/5/3
f 4/5/4 33/2/4 5/6/4
f 5/6/5 33/2/5 6/7/5
f 6/7/6 33/2/6 7/8/6
f 7/8/7 33/2/7 8/9/7
f 8/9/8 33/2/8 9/10/8
f 9/10/9 33/2/9 10/11/9
f 10/11/10 33/2/10 11/12/10
f 11/12/11 33/2/11 12/13/11
f 12/13/12 33/2/12 13/14/12
f 13/14/13 33/2/13 14/15/13
f 14/15/14 33/2/14 15/16/14
f 15/16/15 33/2/15 16/17/15
f 16/17/16 33/2/16 17/18/16
f 17/18/17 33/2/17 18/19/17
f 18/19/18 33/2/18 19/20/18
f 19/20/19 33/2/19 20/21/19
f 20/21/20 33/2/20 21/22/20
f 21/22/21 33/2/21 22/23/21
f 22/23/22 33/2/22 23/24/22
f 23/24/23 33/2/23 24/25/23
f 24/25/24 33/2/24 25/26/24
f 25/26/25 33/2/25 26/27/25
f 26/27/26 33/2/26 27/28/26
f 27/28/27 33/2/27 28/29/27
f 28/29/28 33/2/28 29/30/28
f 29/30/29 33/2/29 30/31/29
f 30/31/30 33/2/30 31/32/30
f 1/33/31 2/34/31 3/35/31 4/36/31 5/37/31 6/38/31 7/39/31 8/40/31 9/41/31 10/42/31 11/43/31 12/44/31 13/45/31 14/46/31 15/47/31 16/48/31 17/49/31 18/50/31 19/51/31 20/52/31 21/53/31 22/54/31 23/55/31 24/56/31 25/57/31 26/58/31 27/59/31 28/60/31 29/61/31 30/62/31 31/63/31 32/64/31
f 31/32/32 33/2/32 32/65/32
f 32/65/33 33/2/33 1/1/33
o Cone.001
v 0.799511 5.345382 1.039235
v 1.102646 5.344472 1.022489
v 1.394446 5.343614 0.967950
v 1.663696 5.342839 0.877715
v 1.900050 5.342179 0.755252
v 2.094424 5.341658 0.605266
v 2.239349 5.341296 0.433522
v 2.329255 5.341108 0.246619
v 2.360688 5.341100 0.051740
v 2.332439 5.341273 -0.143626
v 2.245594 5.341619 -0.331970
v 2.103490 5.342127 -0.506056
v 1.911589 5.342777 -0.659193
v 1.677265 5.343542 -0.785496
v 1.409523 5.344395 -0.880111
v 1.118652 5.345302 -0.939402
v 0.815830 5.346228 -0.961092
v 0.512695 5.347137 -0.944345
v 0.220895 5.347996 -0.889807
v -0.048355 5.348770 -0.799572
v -0.284709 5.349431 -0.677108
v -0.479083 5.349952 -0.527122
v -0.624008 5.350314 -0.355378
v -0.713914 5.350502 -0.168475
v -0.745347 5.350510 0.026404
v -0.717098 5.350337 0.221769
v -0.630253 5.349990 0.410114
v -0.488150 5.349482 0.584200
v -0.296249 5.348833 0.737336
v -0.061924 5.348067 0.863639
v 0.205818 5.347215 0.958255
v 0.496689 5.346308 1.017546
v 0.804670 4.354152 0.038628
vn 0.0367 -0.7099 0.7034
vn 0.1258 -0.7180 0.6846
vn 0.2141 -0.7335 0.6451
vn 0.2999 -0.7552 0.5829
vn 0.3803 -0.7810 0.4955
vn 0.4503 -0.8072 0.3817
vn 0.5035 -0.8291 0.2431
vn 0.5331 -0.8417 0.0860
vn 0.5345 -0.8416 -0.0780
vn 0.5075 -0.8289 -0.2355
vn 0.4565 -0.8068 -0.3750
vn 0.3883 -0.7805 -0.4899
vn 0.3094 -0.7547 -0.5785
vn 0.2246 -0.7330 -0.6421
vn 0.1370 -0.7174 -0.6831
vn 0.0482 -0.7093 -0.7033
vn -0.0410 -0.7090 -0.7040
vn -0.1302 -0.7166 -0.6852
vn -0.2185 -0.7316 -0.6458
vn -0.3044 -0.7529 -0.5835
vn -0.3850 -0.7782 -0.4962
vn -0.4552 -0.8041 -0.3824
vn -0.5086 -0.8258 -0.2438
vn -0.5382 -0.8383 -0.0868
vn -0.5395 -0.8384 0.0773
vn -0.5125 -0.8260 0.2348
vn -0.4614 -0.8044 0.3743
vn -0.3930 -0.7786 0.4892
vn -0.3139 -0.7534 0.5778
vn -0.2290 -0.7322 0.6415
vn 0.0030 1.0000 0.0004
vn -0.1413 -0.7172 0.6824
vn -0.0525 -0.7096 0.7027
vt 0.250000 0.490000
vt 0.250000 0.250000
vt 0.296822 0.485388
vt 0.341844 0.471731
vt 0.383337 0.449553
vt 0.419706 0.419706
vt 0.449553 0.383337
vt 0.471731 0.341844
vt 0.485388 0.296822
vt 0.490000 0.250000
vt 0.485388 0.203178
vt 0.471731 0.158156
vt 0.449553 0.116663
vt 0.419706 0.080294
vt 0.383337 0.050447
vt 0.341844 0.028269
vt 0.296822 0.014612
vt 0.250000 0.010000
vt 0.203178 0.014612
vt 0.158156 0.028269
vt 0.116663 0.050447
vt 0.080294 0.080294
vt 0.050447 0.116663
vt 0.028269 0.158156
vt 0.014612 0.203178
vt 0.010000 0.250000
vt 0.014612 0.296822
vt 0.028269 0.341844
vt 0.050447 0.383337
vt 0.080294 0.419706
vt 0.116663 0.449553
vt 0.158156 0.471731
vt 0.750000 0.490000
vt 0.796822 0.485388
vt 0.841844 0.471731
vt 0.883337 0.449553
vt 0.919706 0.419706
vt 0.949553 0.383337
vt 0.971731 0.341844
vt 0.985388 0.296822
vt 0.990000 0.250000
vt 0.985388 0.203178
vt 0.971731 0.158156
vt 0.949553 0.116663
vt 0.919706 0.080294
vt 0.883337 0.050447
vt 0.841844 0.028269
vt 0.796822 0.014612
vt 0.750000 0.010000
vt 0.703178 0.014612
vt 0.658156 0.028269
vt 0.616663 0.050447
vt 0.580294 0.080294
vt 0.550447 0.116663
vt 0.528269 0.158156
vt 0.514612 0.203178
vt 0.510000 0.250000
vt 0.514612 0.296822
vt 0.528269 0.341844
vt 0.550447 0.383337
vt 0.580294 0.419706
vt 0.616663 0.449553
vt 0.658156 0.471731
vt 0.703178 0.485388
vt 0.203178 0.485388
s 0
f 34/66/34 66/67/34 35/68/34
f 35/68/35 66/67/35 36/69/35
f 36/69/36 66/67/36 37/70/36
f 37/70/37 66/67/37 38/71/37
f 38/71/38 66/67/38 39/72/38
f 39/72/39 66/67/39 40/73/39
f 40/73/40 66/67/40 41/74/40
f 41/74/41 66/67/41 42/75/41
f 42/75/42 66/67/42 43/76/42
f 43/76/43 66/67/43 44/77/43
f 44/77/44 66/67/44 45/78/44
f 45/78/45 66/67/45 46/79/45
f 46/79/46 66/67/46 47/80/46
f 47/80/47 66/67/47 48/81/47
f 48/81/48 66/67/48 49/82/48
f 49/82/49 66/67/49 50/83/49
f 50/83/50 66/67/50 51/84/50
f 51/84/51 66/67/51 52/85/51
f 52/85/52 66/67/52 53/86/52
f 53/86/53 66/67/53 54/87/53
f 54/87/54 66/67/54 55/88/54
f 55/88/55 66/67/55 56/89/55
f 56/89/56 66/67/56 57/90/56
f 57/90/57 66/67/57 58/91/57
f 58/91/58 66/67/58 59/92/58
f 59/92/59 66/67/59 60/93/59
f 60/93/60 66/67/60 61/94/60
f 61/94/61 66/67/61 62/95/61
f 62/95/62 66/67/62 63/96/62
f 63/96/63 66/67/63 64/97/63
f 34/98/64 35/99/64 36/100/64 37/101/64 38/102/64 39/103/64 40/104/64 41/105/64 42/106/64 43/107/64 44/108/64 45/109/64 46/110/64 47/111/64 48/112/64 49/113/64 50/114/64 51/115/64 52/116/64 53/117/64 54/118/64 55/119/64 56/120/64 57/121/64 58/122/64 59/123/64 60/124/64 61/125/64 62/126/64 63/127/64 64/128/64 65/129/64
f 64/97/65 66/67/65 65/130/65
f 65/130/66 66/67/66 34/66/66
o Cube
v -0.801041 5.086951 1.536210
v -0.801041 7.086951 1.536210
v -0.801041 5.086951 -1.598066
v -0.801041 7.086951 -1.598066
v -0.259550 5.086951 1.536210
v -0.259550 7.086951 1.536210
v -0.259550 5.086951 -1.598066
v -0.259550 7.086951 -1.598066
vn -1.0000 -0.0000 -0.0000
vn -0.0000 -0.0000 -1.0000
vn 1.0000 -0.0000 -0.0000
vn -0.0000 -0.0000 1.0000
vn -0.0000 -1.0000 -0.0000
vn -0.0000 1.0000 -0.0000
vt 0.375000 0.000000
vt 0.625000 0.000000
vt 0.625000 0.250000
vt 0.375000 0.250000
vt 0.625000 0.500000
vt 0.375000 0.500000
vt 0.625000 0.750000
vt 0.375000 0.750000
vt 0.625000 1.000000
vt 0.375000 1.000000
vt 0.125000 0.500000
vt 0.125000 0.750000
vt 0.875000 0.500000
vt 0.875000 0.750000
s 0
f 67/131/67 68/132/67 70/133/67 69/134/67
f 69/134/68 70/133/68 74/135/68 73/136/68
f 73/136/69 74/135/69 72/137/69 71/138/69
f 71/138/70 72/137/70 68/139/70 67/140/70
f 69/141/71 73/136/71 71/138/71 67/142/71
f 74/135/72 70/143/72 68/144/72 72/137/72
